<svg width="42" height="42" viewBox="0 0 42 42" fill="none" xmlns="http://www.w3.org/2000/svg">
<path fill-rule="evenodd" clip-rule="evenodd" d="M10.5 6.125C10.5 5.89294 10.5922 5.67038 10.7563 5.50628C10.9204 5.34219 11.1429 5.25 11.375 5.25H30.625C30.8571 5.25 31.0796 5.34219 31.2437 5.50628C31.4078 5.67038 31.5 5.89294 31.5 6.125V7H35.875C36.1071 7 36.3296 7.09219 36.4937 7.25628C36.6578 7.42038 36.75 7.64294 36.75 7.875V13.125C36.75 14.2853 36.2891 15.3981 35.4686 16.2186C34.6481 17.0391 33.5353 17.5 32.375 17.5H30.9024C29.554 21.315 26.0636 24.1185 21.875 24.4641V29.75H28C28.2321 29.75 28.4546 29.8422 28.6187 30.0063C28.7828 30.1704 28.875 30.3929 28.875 30.625V35.875C28.875 36.1071 28.7828 36.3296 28.6187 36.4937C28.4546 36.6578 28.2321 36.75 28 36.75H14C13.7679 36.75 13.5454 36.6578 13.3813 36.4937C13.2172 36.3296 13.125 36.1071 13.125 35.875V30.625C13.125 30.3929 13.2172 30.1704 13.3813 30.0063C13.5454 29.8422 13.7679 29.75 14 29.75H20.125V24.4641C15.9373 24.1185 12.446 21.315 11.0976 17.5H9.625C8.46468 17.5 7.35188 17.0391 6.53141 16.2186C5.71094 15.3981 5.25 14.2853 5.25 13.125V7.875C5.25 7.64294 5.34219 7.42038 5.50628 7.25628C5.67038 7.09219 5.89294 7 6.125 7H10.5V6.125ZM29.75 14V7H12.25V14C12.25 18.8326 16.1674 22.75 21 22.75C25.8326 22.75 29.75 18.8326 29.75 14ZM31.5 8.75V15.75H32.375C33.0712 15.75 33.7389 15.4734 34.2312 14.9812C34.7234 14.4889 35 13.8212 35 13.125V8.75H31.5ZM7 8.75H10.5V15.75H9.625C8.92881 15.75 8.26113 15.4734 7.76884 14.9812C7.27656 14.4889 7 13.8212 7 13.125V8.75ZM14.875 31.5V35H27.125V31.5H14.875Z" fill="white"/>
</svg>
