<svg width="53" height="53" viewBox="0 0 53 53" fill="none" xmlns="http://www.w3.org/2000/svg">
<g clip-path="url(#clip0_4244_825)">
<path d="M38.6455 19.875H32.0205C31.1422 19.8759 30.3002 20.2252 29.6792 20.8462C29.0582 21.4672 28.7089 22.3092 28.708 23.1875V29.8125C28.7086 30.398 28.9414 30.9594 29.3555 31.3734C29.7695 31.7874 30.3308 32.0202 30.9163 32.0208V39.75C30.9169 40.3355 31.1498 40.8969 31.5638 41.3109C31.9778 41.7249 32.5392 41.9578 33.1247 41.9583H37.5413C38.1268 41.9578 38.6882 41.7249 39.1022 41.3109C39.5162 40.8969 39.7491 40.3355 39.7497 39.75V32.0208C40.3352 32.0202 40.8965 31.7874 41.3106 31.3734C41.7246 30.9594 41.9574 30.398 41.958 29.8125V23.1875C41.9571 22.3092 41.6079 21.4672 40.9868 20.8462C40.3658 20.2252 39.5238 19.8759 38.6455 19.875ZM39.7497 29.8125H37.5413V39.75H33.1247V29.8125H30.9163V23.1875C30.9163 22.8947 31.0327 22.6138 31.2397 22.4067C31.4468 22.1997 31.7277 22.0833 32.0205 22.0833H38.6455C38.9384 22.0833 39.2192 22.1997 39.4263 22.4067C39.6333 22.6138 39.7497 22.8947 39.7497 23.1875V29.8125Z" fill="#2C49FE"/>
<path d="M30.916 14.3542C30.916 13.4806 31.175 12.6267 31.6604 11.9004C32.1457 11.1741 32.8355 10.608 33.6425 10.2737C34.4495 9.93941 35.3376 9.85195 36.1943 10.0224C37.0511 10.1928 37.8381 10.6134 38.4557 11.2311C39.0734 11.8488 39.4941 12.6358 39.6645 13.4925C39.8349 14.3493 39.7474 15.2373 39.4132 16.0444C39.0789 16.8514 38.5128 17.5412 37.7865 18.0265C37.0601 18.5118 36.2062 18.7708 35.3327 18.7708C34.1617 18.7697 33.039 18.304 32.2109 17.4759C31.3829 16.6479 30.9172 15.5252 30.916 14.3542ZM33.1243 14.3542C33.1243 14.7909 33.2539 15.2179 33.4965 15.5811C33.7392 15.9442 34.0841 16.2273 34.4876 16.3944C34.8911 16.5615 35.3351 16.6053 35.7635 16.5201C36.1919 16.4349 36.5854 16.2245 36.8942 15.9157C37.2031 15.6069 37.4134 15.2134 37.4986 14.785C37.5838 14.3566 37.5401 13.9126 37.3729 13.5091C37.2058 13.1056 36.9227 12.7607 36.5596 12.518C36.1964 12.2754 35.7694 12.1458 35.3327 12.1458C34.7472 12.1464 34.1858 12.3793 33.7718 12.7933C33.3578 13.2073 33.1249 13.7687 33.1243 14.3542Z" fill="#2C49FE"/>
<path d="M24.2913 26.5V23.1875C24.2905 22.3092 23.9412 21.4672 23.3202 20.8462C22.6991 20.2252 21.8571 19.8759 20.9788 19.875H14.3538C13.4756 19.8759 12.6335 20.2252 12.0125 20.8462C11.3915 21.4672 11.0422 22.3092 11.0413 23.1875V26.5H8.83301V28.7083H26.4997V26.5H24.2913ZM13.2497 23.1875C13.2497 22.8947 13.366 22.6138 13.5731 22.4067C13.7801 22.1997 14.061 22.0833 14.3538 22.0833H20.9788C21.2717 22.0833 21.5525 22.1997 21.7596 22.4067C21.9667 22.6138 22.083 22.8947 22.083 23.1875V26.5H13.2497V23.1875Z" fill="#2C49FE"/>
<path d="M13.25 14.3542C13.25 13.4806 13.509 12.6267 13.9943 11.9004C14.4797 11.1741 15.1694 10.608 15.9765 10.2737C16.7835 9.93941 17.6716 9.85195 18.5283 10.0224C19.3851 10.1928 20.172 10.6134 20.7897 11.2311C21.4074 11.8488 21.8281 12.6358 21.9985 13.4925C22.1689 14.3493 22.0814 15.2373 21.7471 16.0444C21.4128 16.8514 20.8468 17.5412 20.1204 18.0265C19.3941 18.5118 18.5402 18.7708 17.6667 18.7708C16.4957 18.7697 15.3729 18.304 14.5449 17.4759C13.7169 16.6479 13.2512 15.5252 13.25 14.3542ZM15.4583 14.3542C15.4583 14.7909 15.5879 15.2179 15.8305 15.5811C16.0732 15.9442 16.4181 16.2273 16.8216 16.3944C17.2251 16.5615 17.6691 16.6053 18.0975 16.5201C18.5259 16.4349 18.9194 16.2245 19.2282 15.9157C19.537 15.6069 19.7474 15.2134 19.8326 14.785C19.9178 14.3566 19.874 13.9126 19.7069 13.5091C19.5398 13.1056 19.2567 12.7607 18.8936 12.518C18.5304 12.2754 18.1034 12.1458 17.6667 12.1458C17.0812 12.1464 16.5198 12.3793 16.1058 12.7933C15.6918 13.2073 15.4589 13.7687 15.4583 14.3542Z" fill="#2C49FE"/>
</g>
<defs>
<clipPath id="clip0_4244_825">
<rect width="35.3333" height="35.3333" fill="white" transform="translate(8.83301 8.8335)"/>
</clipPath>
</defs>
</svg>
