<svg width="33" height="33" viewBox="0 0 33 33" fill="none" xmlns="http://www.w3.org/2000/svg">
<path d="M28.875 9.28125C28.875 7.91373 28.3318 6.60222 27.3648 5.63523C26.3978 4.66825 25.0863 4.125 23.7188 4.125H9.28125C7.91373 4.125 6.60222 4.66825 5.63523 5.63523C4.66825 6.60222 4.125 7.91373 4.125 9.28125V23.7188C4.125 25.0863 4.66825 26.3978 5.63523 27.3648C6.60222 28.3318 7.91373 28.875 9.28125 28.875H12.9051C12.3798 28.2388 11.9254 27.5472 11.55 26.8125H9.28125C8.46074 26.8125 7.67383 26.4866 7.09364 25.9064C6.51345 25.3262 6.1875 24.5393 6.1875 23.7188V12.375H15.1326C16.9785 11.0756 19.2287 10.3125 21.6562 10.3125C24.3994 10.3125 26.9156 11.286 28.875 12.9051V9.28125ZM21.6562 10.3125H6.1875V9.28125C6.1875 8.46074 6.51345 7.67383 7.09364 7.09364C7.67383 6.51345 8.46074 6.1875 9.28125 6.1875H23.7188C24.5393 6.1875 25.3262 6.51345 25.9064 7.09364C26.4866 7.67383 26.8125 8.46074 26.8125 9.28125V10.3125H21.6562ZM20.3672 17.5312C20.3672 17.1894 20.503 16.8615 20.7447 16.6197C20.9865 16.378 21.3144 16.2422 21.6562 16.2422C21.9981 16.2422 22.326 16.378 22.5678 16.6197C22.8095 16.8615 22.9453 17.1894 22.9453 17.5312C22.9453 17.8731 22.8095 18.201 22.5678 18.4428C22.326 18.6845 21.9981 18.8203 21.6562 18.8203C21.3144 18.8203 20.9865 18.6845 20.7447 18.4428C20.503 18.201 20.3672 17.8731 20.3672 17.5312ZM22.6875 25.7812C22.6875 26.0548 22.5789 26.3171 22.3855 26.5105C22.1921 26.7039 21.9298 26.8125 21.6562 26.8125C21.3827 26.8125 21.1204 26.7039 20.927 26.5105C20.7336 26.3171 20.625 26.0548 20.625 25.7812V21.6562C20.625 21.3827 20.7336 21.1204 20.927 20.927C21.1204 20.7336 21.3827 20.625 21.6562 20.625C21.9298 20.625 22.1921 20.7336 22.3855 20.927C22.5789 21.1204 22.6875 21.3827 22.6875 21.6562V25.7812ZM12.375 21.6562C12.375 20.4374 12.6151 19.2305 13.0815 18.1045C13.5479 16.9784 14.2316 15.9553 15.0934 15.0934C15.9553 14.2316 16.9784 13.5479 18.1045 13.0815C19.2305 12.6151 20.4374 12.375 21.6562 12.375C22.8751 12.375 24.082 12.6151 25.208 13.0815C26.3341 13.5479 27.3572 14.2316 28.2191 15.0934C29.0809 15.9553 29.7646 16.9784 30.231 18.1045C30.6974 19.2305 30.9375 20.4374 30.9375 21.6562C30.9375 24.1178 29.9597 26.4785 28.2191 28.2191C26.4785 29.9597 24.1178 30.9375 21.6562 30.9375C19.1947 30.9375 16.834 29.9597 15.0934 28.2191C13.3528 26.4785 12.375 24.1178 12.375 21.6562ZM14.4375 21.6562C14.4375 23.5708 15.198 25.4069 16.5518 26.7607C17.9056 28.1145 19.7417 28.875 21.6562 28.875C23.5708 28.875 25.4069 28.1145 26.7607 26.7607C28.1145 25.4069 28.875 23.5708 28.875 21.6562C28.875 19.7417 28.1145 17.9056 26.7607 16.5518C25.4069 15.198 23.5708 14.4375 21.6562 14.4375C19.7417 14.4375 17.9056 15.198 16.5518 16.5518C15.198 17.9056 14.4375 19.7417 14.4375 21.6562Z" fill="#2C49FE"/>
</svg>
