<svg width="31" height="31" viewBox="0 0 31 31" fill="none" xmlns="http://www.w3.org/2000/svg">
<g filter="url(#filter0_d_14022_222)">
<path d="M15.2 6.06667C14.1847 6.06667 13.1922 6.36773 12.3481 6.93179C11.5039 7.49585 10.8459 8.29756 10.4574 9.23556C10.0689 10.1736 9.96723 11.2057 10.1653 12.2015C10.3634 13.1972 10.8523 14.1119 11.5702 14.8298C12.2881 15.5477 13.2028 16.0366 14.1985 16.2347C15.1943 16.4328 16.2264 16.3311 17.1644 15.9426C18.1024 15.5541 18.9042 14.8961 19.4682 14.0519C20.0323 13.2078 20.3333 12.2153 20.3333 11.2C20.3318 9.83903 19.7905 8.53424 18.8281 7.57189C17.8658 6.60954 16.561 6.06821 15.2 6.06667ZM15.2 15.4C14.3693 15.4 13.5573 15.1537 12.8666 14.6922C12.1759 14.2307 11.6376 13.5747 11.3197 12.8073C11.0018 12.0398 10.9186 11.1953 11.0807 10.3806C11.2428 9.5659 11.6428 8.81753 12.2302 8.23015C12.8175 7.64277 13.5659 7.24276 14.3806 7.0807C15.1953 6.91864 16.0398 7.00182 16.8073 7.31971C17.5747 7.63759 18.2307 8.17592 18.6922 8.86661C19.1537 9.55729 19.4 10.3693 19.4 11.2C19.3988 12.3135 18.9559 13.3811 18.1685 14.1685C17.3811 14.9559 16.3135 15.3988 15.2 15.4ZM20.3333 0H10.0667C8.45825 0.00182184 6.91622 0.641572 5.7789 1.7789C4.64157 2.91622 4.00182 4.45825 4 6.06667V16.3333C4.00182 17.9418 4.64157 19.4838 5.7789 20.6211C6.91622 21.7584 8.45825 22.3982 10.0667 22.4H20.3333C21.9418 22.3982 23.4838 21.7584 24.6211 20.6211C25.7584 19.4838 26.3982 17.9418 26.4 16.3333V6.06667C26.3982 4.45825 25.7584 2.91622 24.6211 1.7789C23.4838 0.641572 21.9418 0.00182184 20.3333 0ZM25.4667 16.3333C25.4651 17.6943 24.9238 18.9991 23.9614 19.9614C22.9991 20.9238 21.6943 21.4651 20.3333 21.4667H10.0667C8.7057 21.4651 7.40091 20.9238 6.43856 19.9614C5.4762 18.9991 4.93488 17.6943 4.93333 16.3333V6.06667C4.93488 4.7057 5.4762 3.40091 6.43856 2.43856C7.40091 1.4762 8.7057 0.934877 10.0667 0.933333H20.3333C21.6943 0.934877 22.9991 1.4762 23.9614 2.43856C24.9238 3.40091 25.4651 4.7057 25.4667 6.06667V16.3333ZM22.2 5.13333C22.2 5.31793 22.1453 5.49838 22.0427 5.65187C21.9401 5.80535 21.7944 5.92498 21.6238 5.99562C21.4533 6.06626 21.2656 6.08475 21.0846 6.04873C20.9035 6.01272 20.7372 5.92383 20.6067 5.7933C20.4762 5.66277 20.3873 5.49647 20.3513 5.31542C20.3153 5.13437 20.3337 4.94671 20.4044 4.77616C20.475 4.60562 20.5946 4.45985 20.7481 4.3573C20.9016 4.25474 21.0821 4.2 21.2667 4.2C21.5141 4.20031 21.7513 4.29874 21.9263 4.47371C22.1013 4.64867 22.1997 4.88589 22.2 5.13333Z" fill="white"/>
</g>
<defs>
<filter id="filter0_d_14022_222" x="0" y="0" width="30.4004" height="30.3999" filterUnits="userSpaceOnUse" color-interpolation-filters="sRGB">
<feFlood flood-opacity="0" result="BackgroundImageFix"/>
<feColorMatrix in="SourceAlpha" type="matrix" values="0 0 0 0 0 0 0 0 0 0 0 0 0 0 0 0 0 0 127 0" result="hardAlpha"/>
<feOffset dy="4"/>
<feGaussianBlur stdDeviation="2"/>
<feComposite in2="hardAlpha" operator="out"/>
<feColorMatrix type="matrix" values="0 0 0 0 0 0 0 0 0 0 0 0 0 0 0 0 0 0 0.25 0"/>
<feBlend mode="normal" in2="BackgroundImageFix" result="effect1_dropShadow_14022_222"/>
<feBlend mode="normal" in="SourceGraphic" in2="effect1_dropShadow_14022_222" result="shape"/>
</filter>
</defs>
</svg>
