<svg width="39" height="39" viewBox="0 0 39 39" fill="none" xmlns="http://www.w3.org/2000/svg">
<path d="M27.375 32.5H35.5V29.25C35.4999 28.2369 35.1842 27.2489 34.5967 26.4235C34.0092 25.5981 33.1792 24.9762 32.222 24.6443C31.2647 24.3125 30.2279 24.2871 29.2555 24.5717C28.2832 24.8563 27.4237 25.4367 26.7965 26.2324L27.375 32.5ZM27.375 32.5H11.125H27.375ZM27.375 32.5V29.25C27.375 28.184 27.1702 27.1651 26.7965 26.2324L27.375 32.5ZM11.125 32.5H3V29.25C3.00007 28.2369 3.3158 27.2489 3.90327 26.4235C4.49075 25.5981 5.3208 24.9762 6.27803 24.6443C7.23526 24.3125 8.27211 24.2871 9.24445 24.5717C10.2168 24.8563 11.0763 25.4367 11.7035 26.2324L11.125 32.5ZM11.125 32.5V29.25C11.125 28.184 11.3297 27.1651 11.7035 26.2324L11.125 32.5ZM11.7035 26.2324C12.307 24.7243 13.3484 23.4316 14.6935 22.5211C16.0386 21.6105 17.6257 21.1239 19.25 21.1239C20.8743 21.1239 22.4614 21.6105 23.8065 22.5211C25.1516 23.4316 26.193 24.7243 26.7965 26.2324H11.7035ZM24.125 11.375C24.125 12.6679 23.6114 13.9079 22.6971 14.8221C21.7829 15.7364 20.5429 16.25 19.25 16.25C17.9571 16.25 16.7171 15.7364 15.8029 14.8221C14.8886 13.9079 14.375 12.6679 14.375 11.375C14.375 10.0821 14.8886 8.84209 15.8029 7.92785C16.7171 7.01361 17.9571 6.5 19.25 6.5C20.5429 6.5 21.7829 7.01361 22.6971 7.92785C23.6114 8.84209 24.125 10.0821 24.125 11.375V11.375ZM33.875 16.25C33.875 17.112 33.5326 17.9386 32.9231 18.5481C32.3136 19.1576 31.487 19.5 30.625 19.5C29.763 19.5 28.9364 19.1576 28.3269 18.5481C27.7174 17.9386 27.375 17.112 27.375 16.25C27.375 15.388 27.7174 14.5614 28.3269 13.9519C28.9364 13.3424 29.763 13 30.625 13C31.487 13 32.3136 13.3424 32.9231 13.9519C33.5326 14.5614 33.875 15.388 33.875 16.25ZM11.125 16.25C11.125 17.112 10.7826 17.9386 10.1731 18.5481C9.5636 19.1576 8.73695 19.5 7.875 19.5C7.01305 19.5 6.1864 19.1576 5.5769 18.5481C4.96741 17.9386 4.625 17.112 4.625 16.25C4.625 15.388 4.96741 14.5614 5.5769 13.9519C6.1864 13.3424 7.01305 13 7.875 13C8.73695 13 9.5636 13.3424 10.1731 13.9519C10.7826 14.5614 11.125 15.388 11.125 16.25Z" stroke="white" stroke-width="2" stroke-linecap="round" stroke-linejoin="round"/>
</svg>
