<svg width="34" height="34" viewBox="0 0 34 34" fill="none" xmlns="http://www.w3.org/2000/svg">
<path d="M0.200195 6.2002C0.200195 4.6089 0.832336 3.08277 1.95755 1.95755C3.08277 0.832336 4.6089 0.200195 6.2002 0.200195H18.2002C19.7915 0.200195 21.3176 0.832336 22.4428 1.95755C23.5681 3.08277 24.2002 4.6089 24.2002 6.2002C24.2002 6.51846 24.0738 6.82368 23.8487 7.04872C23.6237 7.27377 23.3185 7.4002 23.0002 7.4002C22.6819 7.4002 22.3767 7.27377 22.1517 7.04872C21.9266 6.82368 21.8002 6.51846 21.8002 6.2002C21.8002 5.24542 21.4209 4.32974 20.7458 3.65461C20.0707 2.97948 19.155 2.6002 18.2002 2.6002H6.2002C5.24542 2.6002 4.32974 2.97948 3.65461 3.65461C2.97948 4.32974 2.6002 5.24542 2.6002 6.2002V18.2002C2.6002 19.155 2.97948 20.0707 3.65461 20.7458C4.32974 21.4209 5.24542 21.8002 6.2002 21.8002H17.0338C17.1822 20.4816 17.8109 19.2638 18.7999 18.3791C19.7889 17.4945 21.0691 17.005 22.396 17.0041C23.7229 17.0031 25.0038 17.4907 25.9941 18.3739C26.9844 19.2571 27.6149 20.474 27.7652 21.7924C27.9155 23.1108 27.5751 24.4384 26.809 25.5218C26.0428 26.6052 24.9046 27.3687 23.6115 27.6664C22.3184 27.9641 20.961 27.7753 19.7982 27.136C18.6354 26.4966 17.7488 25.4516 17.3074 24.2002H6.2002C4.6089 24.2002 3.08277 23.5681 1.95755 22.4428C0.832336 21.3176 0.200195 19.7915 0.200195 18.2002V6.2002ZM11.0002 26.6002C10.6819 26.6002 10.3767 26.7266 10.1517 26.9517C9.92662 27.1767 9.8002 27.4819 9.8002 27.8002C9.8002 29.3915 10.4323 30.9176 11.5576 32.0428C12.6828 33.1681 14.2089 33.8002 15.8002 33.8002H27.8002C29.3915 33.8002 30.9176 33.1681 32.0428 32.0428C33.1681 30.9176 33.8002 29.3915 33.8002 27.8002V15.8002C33.8002 14.2089 33.1681 12.6828 32.0428 11.5576C30.9176 10.4323 29.3915 9.8002 27.8002 9.8002H16.693C16.2516 8.54881 15.365 7.50375 14.2022 6.86443C13.0394 6.22511 11.682 6.03629 10.3889 6.33402C9.09577 6.63174 7.95756 7.39515 7.19143 8.47858C6.42531 9.562 6.08492 10.8896 6.23522 12.208C6.38551 13.5264 7.01597 14.7433 8.00629 15.6265C8.99661 16.5097 10.2774 16.9973 11.6044 16.9963C12.9313 16.9954 14.2114 16.5059 15.2005 15.6212C16.1895 14.7366 16.8182 13.5188 16.9666 12.2002H27.8002C28.755 12.2002 29.6707 12.5795 30.3458 13.2546C31.0209 13.9297 31.4002 14.8454 31.4002 15.8002V27.8002C31.4002 28.755 31.0209 29.6707 30.3458 30.3458C29.6707 31.0209 28.755 31.4002 27.8002 31.4002H15.8002C14.8454 31.4002 13.9297 31.0209 13.2546 30.3458C12.5795 29.6707 12.2002 28.755 12.2002 27.8002C12.2002 27.4819 12.0738 27.1767 11.8487 26.9517C11.6237 26.7266 11.3185 26.6002 11.0002 26.6002Z" fill="#2C49FE"/>
</svg>
