<svg width="38" height="38" viewBox="0 0 38 38" fill="none" xmlns="http://www.w3.org/2000/svg">
<path d="M29.6875 19V17.8125C29.6875 14.978 28.5615 12.2596 26.5572 10.2553C24.5529 8.251 21.8345 7.125 19 7.125C16.1655 7.125 13.4471 8.251 11.4428 10.2553C9.4385 12.2596 8.3125 14.978 8.3125 17.8125V19C6.73778 19 5.22755 19.6256 4.11405 20.7391C3.00056 21.8526 2.375 23.3628 2.375 24.9375C2.375 26.5122 3.00056 28.0224 4.11405 29.1359C5.22755 30.2494 6.73778 30.875 8.3125 30.875H10.6875V17.8125C10.6875 15.6079 11.5633 13.4936 13.1222 11.9347C14.6811 10.3758 16.7954 9.5 19 9.5C21.2046 9.5 23.3189 10.3758 24.8778 11.9347C26.4367 13.4936 27.3125 15.6079 27.3125 17.8125V30.875H29.6875C31.2622 30.875 32.7724 30.2494 33.8859 29.1359C34.9994 28.0224 35.625 26.5122 35.625 24.9375C35.625 23.3628 34.9994 21.8526 33.8859 20.7391C32.7724 19.6256 31.2622 19 29.6875 19ZM4.75 24.9375C4.75 23.9927 5.12533 23.0865 5.79343 22.4184C6.46153 21.7503 7.36767 21.375 8.3125 21.375V28.5C7.36767 28.5 6.46153 28.1247 5.79343 27.4566C5.12533 26.7885 4.75 25.8823 4.75 24.9375ZM29.6875 28.5V21.375C30.6323 21.375 31.5385 21.7503 32.2066 22.4184C32.8747 23.0865 33.25 23.9927 33.25 24.9375C33.25 25.8823 32.8747 26.7885 32.2066 27.4566C31.5385 28.1247 30.6323 28.5 29.6875 28.5Z" fill="white"/>
</svg>
